<svg width="538" height="671" viewBox="0 0 538 671" fill="none" xmlns="http://www.w3.org/2000/svg">
    <path fill-rule="evenodd" clip-rule="evenodd" d="M294.536 0.168606C367.568 -4.01479 420.845 70.5128 466.532 127.644C503.262 173.574 514.106 231.608 525.718 289.26C535.942 340.021 545.352 391.426 529.596 440.751C513.787 490.243 475.613 526.148 438.45 562.457C394.481 605.415 355.975 672.411 294.536 670.407C232.916 668.396 199.939 597.8 157.286 553.283C123.052 517.553 94.6548 480.455 70.9316 437.029C41.2514 382.698 -11.3902 329.789 2.19912 269.39C15.8377 208.771 90.5791 188.652 136.284 146.561C190.47 96.6599 220.994 4.38119 294.536 0.168606Z" fill="#DDFDED" />
</svg>
